<svg width="100%" height="100%" viewBox="0 0 90 65" version="1.1" xmlns="http://www.w3.org/2000/svg" xmlns:xlink="http://www.w3.org/1999/xlink" xml:space="preserve" xmlns:serif="http://www.serif.com/" style="fill-rule:evenodd;clip-rule:evenodd;stroke-linejoin:round;stroke-miterlimit:2;">
    <g transform="matrix(1,0,0,1,-628.719,-745.495)">
        <path d="M656.405,768.857C656.405,768.857 658.085,769.587 659.434,772.149C660.042,773.303 660.572,774.814 660.872,776.771C660.922,777.099 660.902,777.126 660.878,777.236C660.846,777.385 660.812,777.596 660.817,778.021C660.82,778.257 660.836,778.579 660.876,779.032C660.924,779.586 660.806,780.497 660.625,781.61C660.083,784.941 658.909,789.884 658.657,792.953L658.296,796.491C658.252,797.167 658.765,797.752 659.44,797.795C660.116,797.839 660.7,797.326 660.744,796.651L661.029,793.122C661.212,790.099 662.271,785.216 662.733,781.93C662.921,780.591 663.009,779.492 662.937,778.829C662.76,777.217 662.959,777.46 662.939,777.032C662.932,776.9 662.914,776.718 662.866,776.444C662.374,773.64 661.466,771.663 660.526,770.283C658.854,767.83 657.057,767.183 657.057,767.183C656.595,767.002 656.074,767.231 655.894,767.693C655.713,768.156 655.942,768.677 656.405,768.857Z" style="fill:rgb(0,198,17);"/>
        <path d="M664.784,753.899C660.245,758.267 655.166,761.659 649.652,764.27C643.642,767.114 637.119,769.034 630.219,770.275C629.74,770.36 629.344,770.697 629.184,771.156C629.024,771.616 629.126,772.126 629.449,772.489C631.588,774.873 634.32,776.542 637.674,777.456C640.377,778.192 643.492,778.44 647.03,778.166L646.844,775.636C643.637,775.857 640.815,775.627 638.371,774.94C636.434,774.395 634.743,773.559 633.294,772.435C639.492,771.201 645.378,769.395 650.862,766.853C656.799,764.102 662.264,760.487 667.146,755.801C671.306,759.45 676.052,762.762 681.061,765.466C686.645,768.48 692.558,770.732 698.362,771.865L699.012,768.462C693.521,767.437 687.922,765.343 682.625,762.54C677.897,760.037 673.407,756.97 669.447,753.583C670.165,752.83 670.689,752.12 671.012,751.473C671.496,750.503 671.582,749.604 671.367,748.805C671.041,747.596 669.887,746.414 667.41,745.733C667.139,745.659 666.853,745.661 666.582,745.738C663.162,746.698 662.187,748.693 662.57,750.6C662.778,751.634 663.515,752.797 664.784,753.899ZM667.06,751.707C667.787,750.994 668.271,750.363 668.402,749.776C668.439,749.607 668.331,749.487 668.17,749.369C667.889,749.163 667.507,748.994 667.026,748.844C666.553,749.009 666.177,749.2 665.902,749.428C665.709,749.589 665.597,749.763 665.64,749.969C665.764,750.559 666.284,751.131 667.06,751.707Z" style="fill:rgb(198,0,0);"/>
        <path d="M685.95,796.254L685.871,807.07C685.871,807.07 649.742,806.805 649.742,806.805C649.742,806.805 649.816,796.684 649.816,796.684L646.352,796.684L646.438,808.438C646.438,809.347 647.175,810.084 648.084,810.084L687.219,809.797C687.969,809.797 688.577,809.189 688.577,808.438L688.488,796.254L685.95,796.254Z" style="fill:rgb(198,0,0);"/>
        <g transform="matrix(1,0,0,1,1.49141,0.857269)">
            <path d="M659.421,780.057C659.421,780.057 658.602,780.096 658.02,779.598C657.743,779.361 657.602,778.959 657.591,778.36C657.546,777.805 657.058,777.39 656.502,777.435C655.947,777.48 655.532,777.968 655.577,778.524C655.764,779.808 656.309,780.564 656.968,780.997C658.143,781.769 659.619,781.524 659.619,781.524C660.024,781.47 660.308,781.097 660.253,780.692C660.199,780.287 659.826,780.003 659.421,780.057Z" style="fill:rgb(0,198,17);"/>
        </g>
        <g transform="matrix(1,0,0,1,-1.17434,-0.234868)">
            <path d="M663.541,784.669C663.541,784.669 664.492,784.962 665.147,785.756C665.468,786.147 665.668,786.687 665.629,787.396C665.629,787.954 666.082,788.407 666.639,788.407C667.197,788.407 667.65,787.954 667.65,787.396C667.579,786.12 667.087,785.206 666.435,784.571C665.331,783.497 663.866,783.225 663.866,783.225C663.468,783.135 663.071,783.386 662.982,783.784C662.892,784.183 663.143,784.579 663.541,784.669Z" style="fill:rgb(0,198,17);"/>
        </g>
        <g transform="matrix(1,0,0,1,1.17434,0.798552)">
            <path d="M658.294,783.846C658.294,783.846 657.393,784.12 656.482,783.972C656.054,783.902 655.637,783.69 655.365,783.232C655.051,782.771 654.422,782.651 653.961,782.964C653.5,783.278 653.38,783.907 653.693,784.368C654.267,785.11 654.982,785.51 655.746,785.647C657.253,785.916 658.838,785.222 658.838,785.222C659.218,785.072 659.404,784.642 659.254,784.262C659.104,783.882 658.674,783.696 658.294,783.846Z" style="fill:rgb(0,198,17);"/>
        </g>
        <g transform="matrix(1,0,0,1,2.19602,-0.48148)">
            <path d="M657.023,788.489C657.023,788.489 656.545,788.977 655.659,789.261C655.221,789.402 654.683,789.458 654.046,789.396C653.488,789.379 653.022,789.818 653.005,790.375C652.988,790.933 653.427,791.399 653.985,791.416C654.924,791.381 655.693,791.18 656.304,790.889C657.6,790.271 658.2,789.386 658.2,789.386C658.448,789.061 658.385,788.597 658.06,788.349C657.735,788.102 657.271,788.164 657.023,788.489Z" style="fill:rgb(0,198,17);"/>
        </g>
        <g transform="matrix(1,0,0,1,-1.62059,-0.0234868)">
            <path d="M662.654,789.387C662.654,789.387 663.102,789.684 663.655,790.421C663.917,790.77 664.178,791.219 664.435,791.777C664.706,792.265 665.322,792.441 665.809,792.17C666.297,791.899 666.473,791.283 666.202,790.796C665.668,789.988 665.146,789.401 664.681,788.993C663.871,788.279 663.285,788.048 663.285,788.048C662.915,787.874 662.474,788.033 662.3,788.402C662.126,788.772 662.285,789.213 662.654,789.387Z" style="fill:rgb(0,198,17);"/>
        </g>
        <path d="M677.007,775.232C675.381,773.732 673.899,772.647 672.616,771.914C670.584,770.755 668.923,770.464 667.827,770.659C666.631,770.872 665.478,771.42 664.494,772.412C663.688,773.223 662.987,774.356 662.512,775.907C662.512,775.906 661.376,776.129 661.376,776.129C660.537,776.297 659.961,777.073 660.046,777.925C660.127,778.748 660.798,779.381 661.615,779.423L661.731,779.51C661.465,779.51 661.202,779.447 660.966,779.324L664.817,781.336C667.431,788.103 670.611,793.024 674.319,795.934C677.9,798.744 681.987,799.773 686.627,798.854C686.768,798.825 686.906,798.78 687.036,798.719C689.773,797.449 692.126,795.637 694.108,793.301C695.823,791.28 697.257,788.861 698.411,786.048C700.365,783.8 702.454,781.708 704.678,779.775C706.977,777.777 709.422,775.951 712.014,774.298C712.918,773.716 713.18,772.509 712.598,771.605C712.016,770.7 710.809,770.439 709.904,771.021C707.166,772.799 704.585,774.76 702.16,776.902C699.742,779.038 697.479,781.353 695.369,783.846C695.234,784.003 695.127,784.181 695.051,784.374C694.058,786.922 692.814,789.115 691.296,790.934C689.724,792.818 687.862,794.299 685.696,795.36C682.238,796.018 679.177,795.245 676.477,793.161C673.032,790.504 670.175,785.866 667.74,779.539C667.593,779.151 667.308,778.831 666.939,778.64L665.419,777.863C665.442,777.8 665.46,777.735 665.474,777.668C665.7,776.56 666.05,775.707 666.515,775.081C667.042,774.372 667.706,773.991 668.41,773.86C669.02,773.746 669.894,774.082 671.031,774.718C672.284,775.42 673.748,776.514 675.373,778.05C675.547,778.215 675.755,778.339 675.983,778.412C676.776,778.662 677.531,778.626 678.241,778.278C678.868,777.97 679.512,777.38 680.033,776.303C680.086,776.194 680.126,776.081 680.153,775.963C681.765,768.808 683.639,762.483 686.267,758.267C688.32,754.974 690.825,753.037 694.144,753.418C693.939,755.448 693.45,757.909 692.805,760.619C691.988,764.052 690.918,767.871 689.826,771.725L686.317,774.913C685.808,775.379 685.738,776.156 686.156,776.706C686.574,777.255 687.341,777.396 687.927,777.03L691.376,774.894C691.659,774.717 691.867,774.442 691.959,774.121L692.047,773.82C692.704,773.884 693.369,773.932 694.042,773.961C695.084,774.006 696.146,774.006 697.232,773.947C697.759,773.92 698.217,773.575 698.387,773.075C698.387,773.075 699.597,769.477 701.31,766.193C701.754,765.341 702.23,764.509 702.728,763.775C703.215,764.89 703.847,766.246 704.407,767.171C704.741,767.723 705.072,768.144 705.34,768.372C705.66,768.644 705.978,768.758 706.241,768.786C706.892,768.856 712.59,769.684 714.761,770.336C714.879,770.372 715.022,770.424 715.115,770.459C715.327,770.682 715.626,770.82 715.957,770.82C716.601,770.82 717.124,770.297 717.124,769.653C717.125,769.373 717.039,769.046 716.737,768.742C716.564,768.568 716.122,768.306 715.444,768.096C713.377,767.457 708.257,766.634 706.823,766.429L706.802,766.404C705.776,765.051 704.22,760.938 704.22,760.938C704.068,760.548 703.731,760.262 703.322,760.176C702.913,760.09 702.488,760.216 702.193,760.511C701.093,761.603 700.019,763.267 699.085,765.021C697.781,767.471 696.744,770.091 696.255,771.399C695.547,771.41 694.851,771.396 694.165,771.361C693.703,771.337 693.247,771.304 692.793,771.262C693.803,767.794 694.774,764.382 695.539,761.282C696.401,757.79 696.998,754.683 697.118,752.312C697.15,751.633 696.704,751.025 696.048,750.85C691.934,749.736 688.611,750.97 685.857,753.897C681.983,758.015 679.298,765.845 677.133,775.045C677.093,775.111 677.049,775.175 677.007,775.232ZM662.029,779.393L661.841,779.412C661.772,779.475 661.731,779.51 661.731,779.51C662.033,779.51 662.32,779.429 662.568,779.283L662.029,779.393Z" style="fill:rgb(0,15,198);"/>
    </g>
</svg>